<svg width="18" height="18" viewBox="0 0 18 18" fill="none" xmlns="http://www.w3.org/2000/svg">
<path d="M1 17.0001H0.4C0.4 17.1592 0.463215 17.3119 0.575737 17.4244C0.68826 17.5369 0.840873 17.6001 1 17.6001L1 17.0001ZM1 13.0001L0.575735 12.5759C0.463214 12.6884 0.4 12.841 0.4 13.0001H1ZM11.8686 2.13146L11.4444 1.7072L11.4444 1.7072L11.8686 2.13146ZM14.1313 2.13146L13.7071 2.55573L14.1313 2.13146ZM15.8686 3.86872L16.2929 3.44446L15.8686 3.86872ZM15.8686 6.13146L15.4444 5.7072V5.7072L15.8686 6.13146ZM5 17.0001L5 17.6001C5.15913 17.6001 5.31174 17.5369 5.42426 17.4244L5 17.0001ZM16.5369 4.69112L17.1075 4.50571L16.5369 4.69112ZM16.5369 5.30908L15.9662 5.12367V5.12367L16.5369 5.30908ZM12.691 1.46325L12.5056 0.892616V0.892616L12.691 1.46325ZM13.3091 1.46325L13.4945 0.892616L13.3091 1.46325ZM9.42426 4.57585C9.18995 4.34154 8.81005 4.34154 8.57574 4.57585C8.34142 4.81017 8.34142 5.19006 8.57574 5.42438L9.42426 4.57585ZM12.5757 9.42438C12.8101 9.65869 13.1899 9.65869 13.4243 9.42438C13.6586 9.19006 13.6586 8.81017 13.4243 8.57585L12.5757 9.42438ZM1.6 17.0001V13.0001H0.4V17.0001H1.6ZM1.42426 13.4244L12.2929 2.55573L11.4444 1.7072L0.575735 12.5759L1.42426 13.4244ZM13.7071 2.55573L15.4443 4.29299L16.2929 3.44446L14.5556 1.7072L13.7071 2.55573ZM15.4444 5.7072L4.57574 16.5758L5.42426 17.4244L16.2929 6.55573L15.4444 5.7072ZM5 16.4001L0.999997 16.4001L1 17.6001L5 17.6001L5 16.4001ZM15.4443 4.29299C15.6494 4.49799 15.7773 4.62658 15.866 4.73111C15.9502 4.8303 15.9634 4.86771 15.9662 4.87653L17.1075 4.50571C17.0362 4.2862 16.9132 4.11042 16.7808 3.95449C16.653 3.80392 16.4839 3.63547 16.2929 3.44446L15.4443 4.29299ZM16.2929 6.55573C16.4839 6.36472 16.653 6.19627 16.7808 6.04569C16.9132 5.88976 17.0362 5.71398 17.1075 5.49449L15.9662 5.12367C15.9634 5.1325 15.9502 5.1699 15.866 5.26908C15.7773 5.37361 15.6494 5.50219 15.4444 5.7072L16.2929 6.55573ZM15.9662 4.87653C15.9923 4.95687 15.9923 5.04333 15.9662 5.12367L17.1075 5.49449C17.2119 5.17313 17.2119 4.82706 17.1075 4.50571L15.9662 4.87653ZM12.2929 2.55573C12.4979 2.35073 12.6265 2.22281 12.731 2.13408C12.8302 2.0499 12.8676 2.03676 12.8764 2.03388L12.5056 0.892616C12.2861 0.963932 12.1103 1.08689 11.9544 1.21926C11.8038 1.34708 11.6354 1.51618 11.4444 1.7072L12.2929 2.55573ZM14.5556 1.7072C14.3646 1.51622 14.1962 1.34711 14.0457 1.2193C13.8898 1.08693 13.714 0.963945 13.4945 0.892616L13.1237 2.03388C13.1325 2.03674 13.1698 2.04986 13.269 2.13404C13.3735 2.22279 13.5021 2.35069 13.7071 2.55573L14.5556 1.7072ZM12.8764 2.03388C12.9568 2.00778 13.0433 2.00778 13.1237 2.03388L13.4945 0.892616C13.1731 0.788203 12.8269 0.788203 12.5056 0.892616L12.8764 2.03388ZM8.57574 5.42438L12.5757 9.42438L13.4243 8.57585L9.42426 4.57585L8.57574 5.42438Z" fill="#737486"/>
</svg>
